<svg width="44" height="44" viewBox="0 0 44 44" fill="none" xmlns="http://www.w3.org/2000/svg">
<path d="M2.31787 27.9749V39.7871C2.31787 41.3621 4.28677 42.5433 5.468 41.3621L12.5555 35.456H36.5737C37.2265 35.5106 37.8835 35.4288 38.503 35.2159C39.1225 35.0031 39.6909 34.6637 40.1722 34.2194C40.6536 33.7751 41.0372 33.2355 41.2989 32.635C41.5606 32.0345 41.6943 31.3861 41.692 30.7311V7.10656C41.6943 6.45151 41.5606 5.80315 41.2989 5.20263C41.0372 4.60212 40.6536 4.06257 40.1722 3.61826C39.6909 3.17395 39.1225 2.83457 38.503 2.62169C37.8835 2.40881 37.2265 2.32708 36.5737 2.38167H7.04306C6.42258 2.38167 5.80814 2.50388 5.23489 2.74133C4.66163 2.97878 4.14087 3.32681 3.70212 3.76556C3.26337 4.20431 2.91532 4.72518 2.67787 5.29843C2.44042 5.87168 2.31787 6.48608 2.31787 7.10656V30.7311" stroke="#2C3B6C" stroke-width="3.58879" stroke-linejoin="round"/>
<path d="M10.9797 13.4062H32.6355" stroke="#2C3B6C" stroke-width="3.58879" stroke-miterlimit="10"/>
<path d="M10.9797 24.8242H32.6355" stroke="#2C3B6C" stroke-width="3.58879" stroke-miterlimit="10"/>
</svg>
