<svg width="25" height="26" viewBox="0 0 25 26" fill="none" xmlns="http://www.w3.org/2000/svg">
<path d="M12.7104 14.8708C13.0277 14.8708 13.332 14.7448 13.5563 14.5204C13.7807 14.2961 13.9067 13.9918 13.9067 13.6745V1.71189C13.9067 1.39462 13.7807 1.09035 13.5563 0.866003C13.332 0.64166 13.0277 0.515625 12.7104 0.515625C12.3932 0.515625 12.0889 0.64166 11.8645 0.866003C11.6402 1.09035 11.5142 1.39462 11.5142 1.71189V13.6745C11.5142 13.9918 11.6402 14.2961 11.8645 14.5204C12.0889 14.7448 12.3932 14.8708 12.7104 14.8708Z" fill="#2C3B6C"/>
<path d="M18.2013 3.04005C17.9189 2.89411 17.5902 2.86631 17.2873 2.96278C16.9844 3.05925 16.7323 3.27208 16.5864 3.55445C16.4404 3.83681 16.4126 4.16559 16.5091 4.46846C16.6055 4.77132 16.8184 5.02346 17.1007 5.1694C19.0069 6.15353 20.5272 7.74958 21.4175 9.70135C22.3078 11.6531 22.5165 13.8474 22.0101 15.9321C21.5038 18.0167 20.3117 19.8707 18.6252 21.1966C16.9387 22.5224 14.8557 23.2432 12.7105 23.2432C10.5652 23.2432 8.48218 22.5224 6.79571 21.1966C5.10924 19.8707 3.91715 18.0167 3.41077 15.9321C2.9044 13.8474 3.11311 11.6531 4.00342 9.70135C4.89372 7.74958 6.41398 6.15353 8.32016 5.1694C8.45998 5.09714 8.58419 4.99804 8.68571 4.87777C8.78723 4.75751 8.86406 4.61842 8.91183 4.46846C8.9596 4.3185 8.97736 4.16059 8.9641 4.00377C8.95084 3.84694 8.90682 3.69426 8.83456 3.55445C8.76229 3.41463 8.6632 3.29042 8.54293 3.1889C8.42266 3.08738 8.28358 3.01055 8.13361 2.96278C7.98365 2.91501 7.82575 2.89725 7.66892 2.91051C7.5121 2.92377 7.35942 2.96779 7.2196 3.04005C4.83747 4.27075 2.93785 6.26605 1.82561 8.70574C0.713365 11.1454 0.452982 13.888 1.08625 16.4935C1.71951 19.0989 3.20971 21.416 5.31769 23.073C7.42566 24.73 10.0292 25.6307 12.7105 25.6307C15.3917 25.6307 17.9952 24.73 20.1032 23.073C22.2112 21.416 23.7014 19.0989 24.3347 16.4935C24.9679 13.888 24.7075 11.1454 23.5953 8.70574C22.4831 6.26605 20.5834 4.27075 18.2013 3.04005Z" fill="#2C3B6C"/>
</svg>
