<svg width="17" height="18" viewBox="0 0 17 18" fill="none" xmlns="http://www.w3.org/2000/svg">
<path d="M1 10.7563V15.2563C1 15.8563 1.75007 16.3062 2.20007 15.8562L4.90014 13.6063H14.0501C14.2988 13.627 14.5491 13.5959 14.7851 13.5148C15.0211 13.4337 15.2376 13.3044 15.421 13.1352C15.6044 12.9659 15.7505 12.7603 15.8502 12.5316C15.9499 12.3028 16.0009 12.0558 16 11.8062V2.80626C16.0009 2.55671 15.9499 2.30971 15.8502 2.08094C15.7505 1.85216 15.6044 1.64662 15.421 1.47735C15.2376 1.30809 15.0211 1.1788 14.7851 1.0977C14.5491 1.0166 14.2988 0.985465 14.0501 1.00626H2.80011C2.56373 1.00626 2.32965 1.05282 2.11127 1.14328C1.89288 1.23373 1.69449 1.36632 1.52734 1.53347C1.3602 1.70061 1.2276 1.89905 1.13715 2.11743C1.04669 2.33582 1 2.56988 1 2.80626V11.8062" stroke="white" stroke-width="2" stroke-linejoin="round"/>
<path d="M4.2998 5.20605H12.5498" stroke="white" stroke-width="2" stroke-miterlimit="10"/>
<path d="M4.2998 9.55615H12.5498" stroke="white" stroke-width="2" stroke-miterlimit="10"/>
</svg>
