<svg width="60" height="60" viewBox="0 0 60 60" fill="none" xmlns="http://www.w3.org/2000/svg">
<rect x="0.5" y="0.5" width="59" height="59" rx="14.5" fill="#DD4C3E" stroke="black"/>
<path d="M45.8333 23.6667H36.3333V14.1667C36.3333 12.4181 34.9153 11 33.1667 11H26.8333C25.0847 11 23.6667 12.4181 23.6667 14.1667V23.6667H14.1667C12.4181 23.6667 11 25.0847 11 26.8333V33.1667C11 34.9153 12.4181 36.3333 14.1667 36.3333H23.6667V45.8333C23.6667 47.5819 25.0847 49 26.8333 49H33.1667C34.9153 49 36.3333 47.5819 36.3333 45.8333V36.3333H45.8333C47.5819 36.3333 49 34.9153 49 33.1667V26.8333C49 25.0847 47.5819 23.6667 45.8333 23.6667Z" fill="#FAFAFA"/>
</svg>
